<?xml version="1.0" encoding="utf-8"?>
<!-- Generator: Adobe Illustrator 25.3.0, SVG Export Plug-In . SVG Version: 6.00 Build 0)  -->
<svg version="1.1" id="레이어_1" xmlns="http://www.w3.org/2000/svg" xmlns:xlink="http://www.w3.org/1999/xlink" x="0px"
	 y="0px" viewBox="0 0 162.1 15.6" style="enable-background:new 0 0 162.1 15.6;" xml:space="preserve">
<style type="text/css">
	.st0{fill:#FFFFFF;}
</style>
<g>
	<path class="st0" d="M8.8,15.1v-6H3.6v6H0V0.5h3.6v5.6h5.2V0.5h3.6v14.6H8.8z"/>
	<path class="st0" d="M24.5,15.1l-0.9-2.5h-5l-0.9,2.5h-3.8l5.3-14.6h3.9l5.2,14.6H24.5z M21.1,5l-1.6,4.6h3.1L21.1,5z"/>
	<path class="st0" d="M29.7,15.1V0.5h3.6v11.4h6.3v3.2C39.6,15.1,29.7,15.1,29.7,15.1z"/>
	<path class="st0" d="M48.1,15.6c-4.4,0-7.7-3.3-7.7-7.8C40.4,3.4,43.7,0,48,0c4.4,0,7.7,3.3,7.7,7.8C55.8,12.3,52.5,15.6,48.1,15.6
		z M48.1,3.7c-2.1,0-3.9,1.8-3.9,4.1s1.7,4.1,3.9,4.1S52,10.1,52,7.8C52,5.6,50.2,3.7,48.1,3.7z"/>
	<path class="st0" d="M70.6,15.1l-3.4-5.6v5.6h-3.6V0.5h5.1c1.6,0,3.2,0.4,4,1.3c0.7,0.8,1.1,1.9,1.1,3.1c0,2-1.2,3.8-3.1,4l4.4,6.1
		h-4.5V15.1z M67.9,3.4h-0.7V7h0.7c1.4,0,2.2-0.7,2.2-1.8S69.3,3.4,67.9,3.4z"/>
	<path class="st0" d="M83.4,15.6c-4.4,0-7.7-3.3-7.7-7.8C75.7,3.4,79,0,83.3,0C87.7,0,91,3.3,91,7.8S87.7,15.6,83.4,15.6z M83.3,3.7
		c-2.1,0-3.9,1.8-3.9,4.1s1.7,4.1,3.9,4.1s3.9-1.8,3.9-4.1C87.2,5.6,85.5,3.7,83.3,3.7z"/>
	<path class="st0" d="M102.4,15.1l-0.9-2.5h-5l-0.9,2.5h-3.8l5.3-14.6h3.9l5.2,14.6H102.4z M99,5l-1.6,4.6h3.1L99,5z"/>
	<path class="st0" d="M111.9,15.5c-1.8,0-3.4-0.6-4.9-1.6l1.5-3c0.8,0.7,2.2,1.4,3.2,1.4s1.7-0.5,1.7-1.4c0-2.2-5.8-1.3-5.8-6.1
		c0-2.7,2.1-4.6,5-4.6c1.4,0,2.8,0.4,4.1,1.1l-1.5,3c-0.7-0.6-1.6-1-2.4-1c-0.9,0-1.4,0.5-1.4,1.2c0,2.1,5.8,1,5.8,6
		C117.2,13.4,115,15.5,111.9,15.5z"/>
	<path class="st0" d="M124.7,3.7v11.4h-3.6V3.7h-3V0.5h9.5v3.2H124.7z"/>
	<path class="st0" d="M129.3,15.1V0.5h7.9v3.2h-4.3v2.4h4.1v3.2h-4.1v2.5h4.3V15L129.3,15.1L129.3,15.1z"/>
	<path class="st0" d="M146.8,15.1l-3.4-5.6v5.6h-3.6V0.5h5.1c1.6,0,3.2,0.4,4,1.3c0.7,0.8,1.1,1.9,1.1,3.1c0,2-1.2,3.8-3.1,4
		l4.4,6.1h-4.5V15.1z M144,3.4h-0.7V7h0.7c1.4,0,2.2-0.7,2.2-1.8S145.4,3.4,144,3.4z"/>
	<path class="st0" d="M156.8,15.5c-1.8,0-3.4-0.6-4.9-1.6l1.5-3c0.8,0.7,2.2,1.4,3.2,1.4s1.7-0.5,1.7-1.4c0-2.2-5.8-1.3-5.8-6.1
		c0-2.7,2.1-4.6,5-4.6c1.4,0,2.8,0.4,4.1,1.1l-1.5,3c-0.7-0.6-1.6-1-2.4-1c-0.9,0-1.4,0.5-1.4,1.2c0,2.1,5.8,1,5.8,6
		C162.1,13.4,159.9,15.5,156.8,15.5z"/>
</g>
</svg>
